<svg xmlns="http://www.w3.org/2000/svg" width="146.3" height="40.38"><path d="M71.87 18.66c0-.7.58-1.29 1.26-1.29h7.18c5.09 0 8.44 2.7 8.44 7.15v.06c0 4.86-4.06 7.38-8.86 7.38h-5.47v6.82c0 .7-.58 1.29-1.3 1.29-.67 0-1.25-.58-1.25-1.29V18.66zM80 29.64c3.73 0 6.18-2 6.18-4.96v-.06c0-3.22-2.41-4.9-6.05-4.9h-5.7v9.92h5.57zM93.6 18.5c0-.7.58-1.29 1.26-1.29.7 0 1.29.58 1.29 1.29v20.28a1.29 1.29 0 0 1-1.3 1.29c-.67 0-1.25-.58-1.25-1.29V18.5zm9.14.03c0-.67.58-1.25 1.26-1.25h.35c.58 0 .94.29 1.3.74l13.68 17.45v-17c0-.68.54-1.26 1.25-1.26.68 0 1.23.58 1.23 1.26v20.35c0 .67-.48 1.19-1.16 1.19h-.13c-.55 0-.94-.32-1.32-.78l-13.97-17.86v17.45c0 .67-.55 1.25-1.26 1.25-.68 0-1.22-.58-1.22-1.25V18.53zm25.43-.03c0-.7.58-1.29 1.26-1.29.7 0 1.29.58 1.29 1.29v12.33l12.84-13.17c.3-.25.58-.45 1-.45.68 0 1.23.61 1.23 1.26 0 .35-.16.64-.42.9l-7.99 7.92 8.57 10.56c.22.3.35.55.35.94 0 .67-.58 1.28-1.28 1.28-.49 0-.81-.26-1.03-.58l-8.4-10.46-4.87 4.86v4.9a1.29 1.29 0 0 1-1.28 1.28c-.68 0-1.26-.58-1.26-1.28V18.5z" fill="#283645"/><path fill="#D22856" d="M98.5 9.88a3.62 3.62 0 0 1-3.62-3.63 3.63 3.63 0 0 1-3.63 3.62 3.63 3.63 0 0 1 3.63 3.63 3.62 3.62 0 0 1 3.62-3.62z"/><g fill="#D22856"><path d="M43.1 19.31c.24 0 .48.02.72.04a2.5 2.5 0 0 0-2.13-1.23 2 2 0 0 1-1.89-1.35c-.72.2-1.42.48-2.09.82.07.01.13.03.2.03a2 2 0 0 1 2 2c0 .1-.02.2-.03.29a9 9 0 0 1 3.21-.6z"/><path d="M60.46 28.02L55.3 6.65C54.93 4.3 52.69 0 46.69 0a1.5 1.5 0 1 0 0 3c4.85 0 5.57 3.73 5.64 4.14l4.76 19.7h-2.07a12.04 12.04 0 0 0-5.3-8.52 2.5 2.5 0 0 0-1.53 2.3c0 .1-.02.18-.03.26A9.03 9.03 0 0 1 52 26.85a9.03 9.03 0 0 1 0 3 9.03 9.03 0 0 1-17.8 0 9.04 9.04 0 0 1-.13-1.5c0-.52.06-1.02.14-1.5a8.95 8.95 0 0 1 .8-2.49 2 2 0 0 1-1.85-1.98.74.74 0 0 0-.19-.49 11.95 11.95 0 0 0-1.8 4.96h-1.81a12.03 12.03 0 0 0-23.85 0H3.41l4.77-19.7C8.25 6.72 8.97 3 13.83 3a1.5 1.5 0 1 0 0-3c-6.01 0-8.24 4.3-8.6 6.65L.05 28.02c-.26 1.1.53 1.82 1.43 1.82H5.5c.07.64.21 1.24.38 1.84a.73.73 0 0 0 .1-.36 2 2 0 0 1 2-2c.17 0 .33.03.48.07a8.34 8.34 0 0 1-.07-1.05 9.03 9.03 0 1 1 9.03 9.03 8.96 8.96 0 0 1-5.39-1.79c-.35.3-.8.5-1.3.5a.75.75 0 0 0-.74.74c0 .29-.07.56-.18.81a11.94 11.94 0 0 0 7.61 2.74c6.13 0 11.19-4.6 11.93-10.52h1.82c.74 5.92 5.8 10.52 11.92 10.52s11.19-4.6 11.93-10.52H59l.04-.01c.9 0 1.69-.71 1.42-1.82z"/></g><path fill="#283645" d="M50.69 16.13a4.5 4.5 0 0 1-4.5-4.5 4.5 4.5 0 0 1-4.5 4.5 4.5 4.5 0 0 1 4.5 4.5 4.5 4.5 0 0 1 4.5-4.5zm-12.79 3.5a2.75 2.75 0 0 1-2.74-2.75 2.75 2.75 0 0 1-2.75 2.75 2.75 2.75 0 0 1 2.75 2.75 2.75 2.75 0 0 1 2.74-2.75zM10.73 34.07A2.75 2.75 0 0 1 8 31.32a2.75 2.75 0 0 1-2.75 2.75 2.75 2.75 0 0 1 2.75 2.75 2.75 2.75 0 0 1 2.74-2.75z"/></svg>